<svg xmlns="http://www.w3.org/2000/svg" width="25.734" height="22.634" viewBox="0 0 25.734 22.634">
  <g id="icon-toggle" transform="translate(-1735.633 -39.683)">
    <g id="Icon_feather-more-horizontal" data-name="Icon feather-more-horizontal" transform="translate(1737.133 41.183)">
      <path id="Контур_3" data-name="Контур 3" d="M19.6,18.05a1.55,1.55,0,1,1-1.55-1.55A1.55,1.55,0,0,1,19.6,18.05Z" transform="translate(-6.683 -16.5)" fill="none" stroke="#fff" stroke-linecap="round" stroke-linejoin="round" stroke-width="3"/>
      <path id="Контур_4" data-name="Контур 4" d="M30.1,18.05a1.55,1.55,0,1,1-1.55-1.55A1.55,1.55,0,0,1,30.1,18.05Z" transform="translate(-7.366 -16.5)" fill="none" stroke="#fff" stroke-linecap="round" stroke-linejoin="round" stroke-width="3"/>
      <path id="Контур_5" data-name="Контур 5" d="M9.1,18.05A1.55,1.55,0,1,1,7.55,16.5,1.55,1.55,0,0,1,9.1,18.05Z" transform="translate(-6 -16.5)" fill="none" stroke="#fff" stroke-linecap="round" stroke-linejoin="round" stroke-width="3"/>
    </g>
    <g id="Icon_feather-more-horizontal-2" data-name="Icon feather-more-horizontal" transform="translate(1737.133 49.45)">
      <path id="Контур_3-2" data-name="Контур 3" d="M19.6,18.05a1.55,1.55,0,1,1-1.55-1.55A1.55,1.55,0,0,1,19.6,18.05Z" transform="translate(-6.683 -16.5)" fill="none" stroke="#fff" stroke-linecap="round" stroke-linejoin="round" stroke-width="3"/>
      <path id="Контур_4-2" data-name="Контур 4" d="M30.1,18.05a1.55,1.55,0,1,1-1.55-1.55A1.55,1.55,0,0,1,30.1,18.05Z" transform="translate(-7.366 -16.5)" fill="none" stroke="#fff" stroke-linecap="round" stroke-linejoin="round" stroke-width="3"/>
      <path id="Контур_5-2" data-name="Контур 5" d="M9.1,18.05A1.55,1.55,0,1,1,7.55,16.5,1.55,1.55,0,0,1,9.1,18.05Z" transform="translate(-6 -16.5)" fill="none" stroke="#fff" stroke-linecap="round" stroke-linejoin="round" stroke-width="3"/>
    </g>
    <g id="Icon_feather-more-horizontal-3" data-name="Icon feather-more-horizontal" transform="translate(1737.133 57.717)">
      <path id="Контур_3-3" data-name="Контур 3" d="M19.6,18.05a1.55,1.55,0,1,1-1.55-1.55A1.55,1.55,0,0,1,19.6,18.05Z" transform="translate(-6.683 -16.5)" fill="none" stroke="#fff" stroke-linecap="round" stroke-linejoin="round" stroke-width="3"/>
      <path id="Контур_4-3" data-name="Контур 4" d="M30.1,18.05a1.55,1.55,0,1,1-1.55-1.55A1.55,1.55,0,0,1,30.1,18.05Z" transform="translate(-7.366 -16.5)" fill="none" stroke="#fff" stroke-linecap="round" stroke-linejoin="round" stroke-width="3"/>
      <path id="Контур_5-3" data-name="Контур 5" d="M9.1,18.05A1.55,1.55,0,1,1,7.55,16.5,1.55,1.55,0,0,1,9.1,18.05Z" transform="translate(-6 -16.5)" fill="none" stroke="#fff" stroke-linecap="round" stroke-linejoin="round" stroke-width="3"/>
    </g>
  </g>
</svg>
