<svg xmlns="http://www.w3.org/2000/svg" width="138.764" height="45"><g data-name="Сгруппировать 124"><g data-name="Сгруппировать 122"><path data-name="Контур 16" d="M8.91 44.998c-.359 0-.708 0-1.064-.013a14.935 14.935 0 01-2.2-.192 6.926 6.926 0 01-1.95-.645 6.361 6.361 0 01-1.644-1.2 6.26 6.26 0 01-1.2-1.643 6.73 6.73 0 01-.639-1.95 14.6 14.6 0 01-.2-2.206c-.007-.248-.017-1.074-.017-1.074V8.905s.01-.813.017-1.052a14.548 14.548 0 01.195-2.2 6.769 6.769 0 01.64-1.955A6.322 6.322 0 012.046 2.05a6.549 6.549 0 011.65-1.2A6.854 6.854 0 015.642.21 14.815 14.815 0 017.849.014L8.911 0h120.936l1.075.015a14.578 14.578 0 012.187.191 6.99 6.99 0 011.966.644 6.582 6.582 0 012.842 2.847 6.778 6.778 0 01.63 1.94 15.28 15.28 0 01.2 2.22v1.047c.009.441.009.861.009 1.284V34.81c0 .427 0 .844-.009 1.265v1.094a14.976 14.976 0 01-.2 2.18 6.749 6.749 0 01-.635 1.965 6.447 6.447 0 01-1.2 1.63 6.37 6.37 0 01-1.647 1.2 6.9 6.9 0 01-1.963.647 14.763 14.763 0 01-2.2.192 46.12 46.12 0 01-1.056.013h-1.276z"/></g><g data-name="&lt;Group&gt;" fill="#fff"><g data-name="&lt;Group&gt;"><path data-name="&lt;Path&gt;" d="M27.158 21.814a5.624 5.624 0 012.678-4.719 5.757 5.757 0 00-4.536-2.452c-1.908-.2-3.759 1.142-4.731 1.142-.991 0-2.489-1.122-4.1-1.089a6.041 6.041 0 00-5.084 3.1c-2.2 3.806-.558 9.4 1.547 12.474 1.053 1.506 2.285 3.189 3.9 3.129 1.576-.065 2.165-1.005 4.068-1.005 1.885 0 2.438 1.005 4.081.967 1.692-.027 2.757-1.513 3.774-3.034a12.458 12.458 0 001.726-3.515 5.435 5.435 0 01-3.318-5zm-3.105-9.195a5.538 5.538 0 001.267-3.967 5.634 5.634 0 00-3.647 1.886 5.269 5.269 0 00-1.3 3.82 4.659 4.659 0 003.679-1.739z"/></g><g data-name="Сгруппировать 123"><path data-name="Контур 17" d="M45.707 29.586H40.33l-1.292 3.815h-2.281l5.1-14.113h2.363l5.1 14.113h-2.322zm-4.822-1.76h4.264l-2.1-6.191h-.059z"/><path data-name="Контур 18" d="M60.32 28.255c0 3.2-1.711 5.252-4.294 5.252a3.488 3.488 0 01-3.238-1.8h-.049v5.1h-2.112V23.111h2.044v1.711h.039a3.65 3.65 0 013.276-1.819c2.61 0 4.334 2.064 4.334 5.252zm-2.171 0c0-2.083-1.077-3.453-2.719-3.453-1.614 0-2.7 1.4-2.7 3.453 0 2.073 1.085 3.462 2.7 3.462 1.643 0 2.719-1.36 2.719-3.462z"/><path data-name="Контур 19" d="M71.645 28.255c0 3.2-1.711 5.252-4.294 5.252a3.488 3.488 0 01-3.238-1.8h-.049v5.1h-2.108V23.111H64v1.711h.039a3.65 3.65 0 013.276-1.819c2.608 0 4.33 2.064 4.33 5.252zm-2.171 0c0-2.083-1.077-3.453-2.719-3.453-1.614 0-2.7 1.4-2.7 3.453 0 2.073 1.085 3.462 2.7 3.462 1.643 0 2.719-1.36 2.719-3.462z"/><path data-name="Контур 20" d="M79.13 29.468c.157 1.4 1.516 2.318 3.374 2.318 1.78 0 3.061-.919 3.061-2.181 0-1.1-.772-1.751-2.6-2.2l-1.829-.441c-2.592-.626-3.795-1.838-3.795-3.8 0-2.435 2.122-4.108 5.135-4.108 2.982 0 5.027 1.673 5.1 4.108h-2.137c-.128-1.408-1.292-2.259-2.993-2.259s-2.866.86-2.866 2.112c0 1 .744 1.585 2.563 2.034l1.555.382c2.9.685 4.1 1.848 4.1 3.912 0 2.64-2.1 4.294-5.448 4.294-3.13 0-5.243-1.615-5.38-4.168z"/><path data-name="Контур 21" d="M92.354 20.676v2.435h1.957v1.673h-1.957v5.672c0 .881.392 1.292 1.252 1.292a6.6 6.6 0 00.695-.049v1.663a5.8 5.8 0 01-1.173.1c-2.083 0-2.9-.782-2.9-2.778v-5.9h-1.5v-1.673h1.5v-2.435z"/><path data-name="Контур 22" d="M95.444 28.253c0-3.238 1.907-5.272 4.88-5.272s4.881 2.034 4.881 5.272-1.888 5.272-4.881 5.272-4.88-2.023-4.88-5.272zm7.609 0c0-2.221-1.018-3.532-2.729-3.532s-2.728 1.321-2.728 3.532c0 2.23 1.017 3.531 2.728 3.531s2.729-1.3 2.729-3.531z"/><path data-name="Контур 23" d="M106.947 23.111h2.014v1.751h.049a2.454 2.454 0 012.475-1.859 3.258 3.258 0 01.724.079v1.973a2.953 2.953 0 00-.949-.128 2.128 2.128 0 00-2.2 2.367v6.1h-2.113z"/><path data-name="Контур 24" d="M121.947 30.378c-.284 1.868-2.1 3.15-4.431 3.15-2.993 0-4.851-2.006-4.851-5.223s1.868-5.321 4.762-5.321c2.847 0 4.637 1.956 4.637 5.075v.724h-7.267v.128a2.68 2.68 0 002.768 2.915 2.328 2.328 0 002.376-1.447zm-7.14-3.071h5.14a2.475 2.475 0 00-2.524-2.612 2.6 2.6 0 00-2.62 2.612z"/></g></g></g><g data-name="&lt;Group&gt;"><g data-name="Сгруппировать 125" fill="#fff"><path data-name="Контур 25" d="M40.619 8.812a3 3 0 013.191 3.37c0 2.166-1.171 3.412-3.191 3.412h-2.45V8.812zm-1.4 5.822h1.28a2.132 2.132 0 002.236-2.439 2.138 2.138 0 00-2.236-2.425h-1.276z"/><path data-name="Контур 26" d="M45 13.032a2.424 2.424 0 114.827 0 2.425 2.425 0 11-4.827 0zm3.788 0c0-1.109-.5-1.758-1.373-1.758s-1.372.649-1.372 1.758.494 1.762 1.372 1.762 1.373-.648 1.373-1.762z"/><path data-name="Контур 27" d="M56.243 15.594h-1.047l-1.058-3.769h-.08l-1.053 3.769h-1.038l-1.411-5.118h1.024l.917 3.905h.075l1.052-3.905h.969l1.053 3.905h.08l.912-3.905h1.01z"/><path data-name="Контур 28" d="M58.835 10.475h.972v.813h.074a1.532 1.532 0 011.527-.912 1.664 1.664 0 011.771 1.9v3.313h-1.008v-3.055c0-.822-.357-1.231-1.1-1.231a1.174 1.174 0 00-1.222 1.3v2.994h-1.01z"/><path data-name="Контур 29" d="M64.791 8.478h1.006v7.115h-1.01z"/><path data-name="Контур 30" d="M67.204 13.032a2.425 2.425 0 114.827 0 2.425 2.425 0 11-4.827 0zm3.788 0c0-1.109-.5-1.758-1.373-1.758s-1.372.649-1.372 1.758.494 1.762 1.372 1.762 1.373-.648 1.373-1.762z"/><path data-name="Контур 31" d="M73.094 14.146c0-.921.686-1.452 1.9-1.528l1.386-.08v-.442c0-.541-.357-.846-1.048-.846-.564 0-.954.207-1.067.569h-.971c.1-.879.93-1.443 2.091-1.443 1.283 0 2.007.639 2.007 1.72v3.5h-.972v-.719h-.08a1.722 1.722 0 01-1.537.8 1.546 1.546 0 01-1.709-1.531zm3.29-.437v-.428l-1.25.08c-.7.047-1.024.287-1.024.738s.4.729.949.729a1.206 1.206 0 001.325-1.119z"/><path data-name="Контур 32" d="M78.718 13.032c0-1.617.831-2.642 2.124-2.642a1.687 1.687 0 011.569.9h.075V8.478h1.01v7.115h-.966v-.809h-.08a1.776 1.776 0 01-1.607.893c-1.302.001-2.125-1.024-2.125-2.645zm1.043 0c0 1.085.512 1.739 1.367 1.739s1.377-.663 1.377-1.734-.532-1.739-1.377-1.739-1.367.658-1.367 1.734z"/><path data-name="Контур 33" d="M87.675 13.032a2.424 2.424 0 114.827 0 2.425 2.425 0 11-4.827 0zm3.788 0c0-1.109-.5-1.758-1.373-1.758s-1.372.649-1.372 1.758.494 1.762 1.372 1.762 1.373-.648 1.373-1.762z"/><path data-name="Контур 34" d="M93.857 10.475h.972v.813h.075a1.532 1.532 0 011.527-.912 1.664 1.664 0 011.771 1.9v3.313h-1.01v-3.055c0-.822-.357-1.231-1.1-1.231a1.174 1.174 0 00-1.222 1.3v2.994h-1.01z"/><path data-name="Контур 35" d="M103.911 9.202v1.3h1.109v.851h-1.109v2.632c0 .536.221.771.724.771a3.371 3.371 0 00.385-.023v.841a3.313 3.313 0 01-.549.052c-1.123 0-1.57-.4-1.57-1.382v-2.89h-.812v-.851h.812v-1.3z"/><path data-name="Контур 36" d="M106.394 8.478h1v2.82h.08a1.575 1.575 0 011.56-.917 1.686 1.686 0 011.762 1.908v3.3h-1.002v-3.048c0-.817-.381-1.231-1.094-1.231a1.2 1.2 0 00-1.289 1.3v2.989h-1.017z"/><path data-name="Контур 37" d="M116.692 14.211a2.078 2.078 0 01-2.218 1.481 2.325 2.325 0 01-2.364-2.641 2.36 2.36 0 012.36-2.674c1.424 0 2.283.973 2.283 2.58v.352h-3.614v.06a1.353 1.353 0 001.363 1.466 1.227 1.227 0 001.218-.62zm-3.553-1.649h2.585a1.235 1.235 0 00-1.26-1.326 1.309 1.309 0 00-1.325 1.326z"/></g></g></svg>