<svg xmlns="http://www.w3.org/2000/svg" width="152.501" height="45"><defs><linearGradient id="a" x1="2.472" y1="1.035" x2="2.361" y2="1.005" gradientUnits="objectBoundingBox"><stop offset="0" stop-color="#00a0ff"/><stop offset=".007" stop-color="#00a1ff"/><stop offset=".26" stop-color="#00beff"/><stop offset=".512" stop-color="#00d2ff"/><stop offset=".76" stop-color="#00dfff"/><stop offset="1" stop-color="#00e3ff"/></linearGradient><linearGradient id="b" x1="1.95" y1="1.879" x2="1.69" y2="1.879" gradientUnits="objectBoundingBox"><stop offset="0" stop-color="#ffe000"/><stop offset=".409" stop-color="#ffbd00"/><stop offset=".775" stop-color="orange"/><stop offset="1" stop-color="#ff9c00"/></linearGradient><linearGradient id="c" x1="1.926" y1=".946" x2="1.835" y2=".793" gradientUnits="objectBoundingBox"><stop offset="0" stop-color="#ff3a44"/><stop offset="1" stop-color="#c31162"/></linearGradient><linearGradient id="d" x1="1.856" y1="2.093" x2="1.897" y2="2.025" gradientUnits="objectBoundingBox"><stop offset="0" stop-color="#32a071"/><stop offset=".068" stop-color="#2da771"/><stop offset=".476" stop-color="#15cf74"/><stop offset=".801" stop-color="#06e775"/><stop offset="1" stop-color="#00f076"/></linearGradient></defs><path data-name="Контур 38" d="M146.85 45H5.65A5.653 5.653 0 010 39.375V5.625A5.646 5.646 0 015.65 0h141.2a5.648 5.648 0 015.65 5.625v33.75A5.655 5.655 0 01146.85 45z" fill-rule="evenodd"/><path data-name="Контур 39" d="M146.85.9a4.75 4.75 0 014.75 4.724v33.75a4.741 4.741 0 01-4.75 4.724H5.65A4.75 4.75 0 01.9 39.375V5.625A4.741 4.741 0 015.65.9zm0-.9H5.65A5.653 5.653 0 000 5.625v33.75A5.646 5.646 0 005.65 45h141.2a5.648 5.648 0 005.65-5.625V5.625A5.655 5.655 0 00146.85 0z" fill="none"/><path data-name="Контур 40" d="M80.406 14.912a3.439 3.439 0 01-2.567-1.062 3.618 3.618 0 01-1.037-2.593 3.538 3.538 0 011.037-2.59 3.428 3.428 0 012.564-1.062 3.475 3.475 0 012.567 1.062 3.753 3.753 0 010 5.179 3.41 3.41 0 01-2.564 1.066zm-30.437 0a3.566 3.566 0 01-2.578-1.048 3.652 3.652 0 012.578-6.256 3.592 3.592 0 011.44.3 2.913 2.913 0 011.1.783l.068.082-.764.75-.079-.093a2.17 2.17 0 00-1.772-.764 2.45 2.45 0 00-1.767.721 2.739 2.739 0 000 3.754 2.583 2.583 0 003.582 0 1.951 1.951 0 00.518-1.175h-2.449v-1.054h3.5l.014.1a3.88 3.88 0 01.051.53 3.172 3.172 0 01-.874 2.339 3.409 3.409 0 01-2.568 1.031zm40.469-.149h-1.079l-3.305-5.289.028.952v4.334h-1.079v-7h1.231l.034.054 3.108 4.982-.028-.95V7.76h1.091zm-18.142 0h-1.093V8.811h-1.9V7.757h4.884v1.054h-1.9v5.952zm-3.88 0h-1.088V7.758h1.091zm-6.129 0h-1.09V8.811h-1.9V7.757h4.884v1.054h-1.9zm-3.677-.011h-4.182V7.758h4.182v1.054h-3.089v1.922h2.787v1.043h-2.787v1.922h3.089zm20.03-1.626a2.413 2.413 0 001.767.733 2.353 2.353 0 001.767-.733 2.777 2.777 0 000-3.731 2.418 2.418 0 00-1.767-.733 2.342 2.342 0 00-1.764.733 2.781 2.781 0 00-.005 3.731z" fill="#fff"/><path data-name="Контур 41" d="M76.311 24.384a4.807 4.807 0 104.822 4.807 4.732 4.732 0 00-4.822-4.807zm0 7.71a2.921 2.921 0 112.711-2.914 2.782 2.782 0 01-2.711 2.914zm-10.52-7.71a4.807 4.807 0 104.822 4.807 4.732 4.732 0 00-4.821-4.807zm0 7.71a2.921 2.921 0 112.711-2.914 2.782 2.782 0 01-2.71 2.914zm-12.517-6.242v2.035h4.883a4.288 4.288 0 01-1.1 2.562 4.984 4.984 0 01-3.768 1.493 5.425 5.425 0 010-10.849 5.213 5.213 0 013.677 1.457l1.443-1.443a7.094 7.094 0 00-5.109-2.06 7.46 7.46 0 100 14.918 6.828 6.828 0 005.21-2.1 6.752 6.752 0 001.77-4.771 6.294 6.294 0 00-.113-1.268h-6.893v.026zm51.2 1.584a4.467 4.467 0 00-4.117-3.063 4.567 4.567 0 00-4.531 4.807 4.7 4.7 0 004.771 4.807 4.772 4.772 0 004-2.133l-1.632-1.093a2.734 2.734 0 01-2.362 1.33 2.455 2.455 0 01-2.336-1.457l6.428-2.663-.221-.535zm-6.555 1.611a2.639 2.639 0 012.511-2.8 1.853 1.853 0 011.784 1.017zm-5.222 4.658h2.111V19.577h-2.111zm-3.466-8.248h-.076a3.329 3.329 0 00-2.536-1.079 4.807 4.807 0 000 9.606 3.321 3.321 0 002.536-1.093h.076v.69c0 1.834-.98 2.824-2.561 2.824a2.665 2.665 0 01-2.424-1.708l-1.834.766a4.588 4.588 0 004.255 2.838c2.474 0 4.571-1.457 4.571-5.01v-8.626h-2v.792zm-2.423 6.642a2.923 2.923 0 010-5.825 2.7 2.7 0 012.562 2.925 2.669 2.669 0 01-2.562 2.895zm27.548-12.517h-5.047v14.124h2.111v-5.359h2.939a4.394 4.394 0 100-8.775zm.062 6.8h-3v-4.847h3a2.424 2.424 0 110 4.847zm13.033-2.02a3.975 3.975 0 00-3.768 2.159l1.871.778a2.007 2.007 0 011.922-1.043 2.038 2.038 0 012.223 1.82v.149a4.728 4.728 0 00-2.2-.541c-2.021 0-4.069 1.1-4.069 3.176a3.264 3.264 0 003.5 3.114 2.971 2.971 0 002.686-1.381h.076v1.093h2.035v-5.411c.005-2.521-1.866-3.916-4.275-3.916zm-.265 7.735c-.69 0-1.657-.338-1.657-1.206 0-1.093 1.206-1.508 2.235-1.508a3.663 3.663 0 011.922.476 2.541 2.541 0 01-2.499 2.235zm11.968-7.434l-2.424 6.126h-.076l-2.511-6.126h-2.271l3.768 8.564-2.147 4.76h2.2l5.8-13.323zm-19 9.04h2.111V19.577h-2.111z" fill="#fff" fill-rule="evenodd"/><path data-name="Контур 42" d="M400.616 299.476a2.263 2.263 0 00-.516 1.584v24.81a2.154 2.154 0 00.527 1.57l.087.076 14-13.9v-.316L400.7 299.4z" transform="translate(-388.825 -290.963)" fill-rule="evenodd" fill="url(#a)"/><path data-name="Контур 43" d="M922.969 640.166L918.3 635.5v-.327l4.669-4.669.1.062 5.523 3.139c1.581.891 1.581 2.361 0 3.263l-5.523 3.139z" transform="translate(-892.547 -612.833)" fill-rule="evenodd" fill="url(#b)"/><path data-name="Контур 44" d="M437.258 806.771L432.487 802 418.4 816.087a1.849 1.849 0 002.347.076l16.51-9.392" transform="translate(-406.61 -779.547)" fill-rule="evenodd" fill="url(#c)"/><path data-name="Контур 45" d="M437.258 296.237l-16.51-9.378a1.831 1.831 0 00-2.347.076l14.087 14.073z" transform="translate(-406.61 -278.46)" fill-rule="evenodd" fill="url(#d)"/><path data-name="Контур 46" d="M30.547 27.115l-16.4 9.316a1.861 1.861 0 01-2.26.011l-.087.087.087.076a1.865 1.865 0 002.26-.011l16.51-9.378z" fill-rule="evenodd" opacity=".2"/><path data-name="Контур 47" d="M36.03 23.956l-5.639 3.2.1.1 5.523-3.139a1.979 1.979 0 001.181-1.632 2.033 2.033 0 01-1.165 1.471z" fill-rule="evenodd" opacity=".12"/><path data-name="Контур 48" d="M14.138 8.562L36.175 21.08a2.077 2.077 0 011.181 1.468 1.979 1.979 0 00-1.181-1.632L14.141 8.399c-1.581-.9-2.863-.149-2.863 1.657v.163c-.003-1.809 1.279-2.55 2.86-1.657z" fill="#fff" fill-rule="evenodd" opacity=".25"/></svg>