<svg xmlns="http://www.w3.org/2000/svg" width="276.48" height="244" viewBox="0 0 276.48 244">
  <g id="icon-medical" transform="translate(-899.001 -1417.923)" opacity="0.39">
    <path id="Icon_feather-heart" data-name="Icon feather-heart" d="M240.241,24.37a67.844,67.844,0,0,0-95.95,0L131.218,37.44,118.145,24.37A67.838,67.838,0,1,0,22.2,120.3l13.073,13.069,95.95,95.925,95.95-95.925L240.241,120.3a67.8,67.8,0,0,0,0-95.925Z" transform="translate(901.678 1418.425)" fill="none" stroke="#c4d7d1" stroke-linecap="round" stroke-linejoin="round" stroke-width="10"/>
    <path id="Объединение_3" data-name="Объединение 3" d="M60.82,208.129a8,8,0,0,1-8-8v-57.2H8a8,8,0,0,1-8-8V73.2a8,8,0,0,1,8-8H52.82V8a8,8,0,0,1,8-8h63.028a8,8,0,0,1,8,8V65.2h25.743a8,8,0,0,1,8,8v61.735a8,8,0,0,1-8,8H131.848v57.2a8,8,0,0,1-8,8Z" transform="translate(1006.067 1453.794)" fill="#ebfaf4"/>
    <g id="Объединение_4" data-name="Объединение 4" transform="translate(1019.244 1476.507)" fill="#ebfaf4">
      <path d="M 99.29610443115234 151.2382049560547 L 56.94210433959961 151.2382049560547 C 55.287841796875 151.2382049560547 53.94200897216797 149.8923645019531 53.94200897216797 148.2380981445313 L 53.94200897216797 107.2961959838867 L 53.94200897216797 102.2961959838867 L 48.94200897216797 102.2961959838867 L 8.000104904174805 102.2961959838867 C 6.345842838287354 102.2961959838867 5.000009536743164 100.9503631591797 5.000009536743164 99.29610443115234 L 5.000009536743164 56.94210433959961 C 5.000009536743164 55.287841796875 6.345842838287354 53.94200897216797 8.000104904174805 53.94200897216797 L 48.94200897216797 53.94200897216797 L 53.94200897216797 53.94200897216797 L 53.94200897216797 48.94200897216797 L 53.94200897216797 8.000102043151855 C 53.94200897216797 6.345840454101563 55.287841796875 5.000007152557373 56.94210433959961 5.000007152557373 L 99.29610443115234 5.000007152557373 C 100.9503631591797 5.000007152557373 102.2962036132813 6.345840454101563 102.2962036132813 8.000102043151855 L 102.2962036132813 48.94200897216797 L 102.2962036132813 53.94200897216797 L 107.2962036132813 53.94200897216797 L 148.2380981445313 53.94200897216797 C 149.8918609619141 53.94200897216797 151.2373199462891 55.287841796875 151.2373199462891 56.94210433959961 L 151.2373199462891 99.29610443115234 C 151.2373199462891 100.9503631591797 149.8918609619141 102.2961959838867 148.2380981445313 102.2961959838867 L 107.2962036132813 102.2961959838867 L 102.2962036132813 102.2961959838867 L 102.2962036132813 107.2961959838867 L 102.2962036132813 148.2380981445313 C 102.2962036132813 149.8923645019531 100.9503631591797 151.2382049560547 99.29610443115234 151.2382049560547 Z" stroke="none"/>
      <path d="M 97.29621124267578 146.2382202148438 L 97.29621124267578 107.2961883544922 L 97.29621124267578 97.29618835449219 L 107.2962112426758 97.29618835449219 L 146.2373046875 97.29618835449219 L 146.2373046875 58.94201278686523 L 107.2962112426758 58.94201278686523 L 97.29621124267578 58.94201278686523 L 97.29621124267578 48.94201278686523 L 97.29621124267578 10.00001430511475 L 58.9420051574707 10.00001430511475 L 58.9420051574707 48.94201278686523 L 58.9420051574707 58.94201278686523 L 48.9420051574707 58.94201278686523 L 10.0000057220459 58.94201278686523 L 10.0000057220459 97.29618835449219 L 48.9420051574707 97.29618835449219 L 58.9420051574707 97.29618835449219 L 58.9420051574707 107.2961883544922 L 58.9420051574707 146.2382202148438 L 97.29621124267578 146.2382202148438 M 99.29609680175781 156.2382202148438 L 56.94209289550781 156.2382202148438 C 52.52400588989258 156.2382202148438 48.9420051574707 152.6571044921875 48.9420051574707 148.2380981445313 L 48.9420051574707 107.2961883544922 L 8.000093460083008 107.2961883544922 C 3.582005262374878 107.2961883544922 5.284926373860799e-06 103.7141876220703 5.284926373860799e-06 99.29610443115234 L 5.284926373860799e-06 56.94210433959961 C 5.284926373860799e-06 52.52401351928711 3.582005262374878 48.94201278686523 8.000093460083008 48.94201278686523 L 48.9420051574707 48.94201278686523 L 48.9420051574707 8.000102043151855 C 48.9420051574707 3.582014322280884 52.52400588989258 1.424273341399385e-05 56.94209289550781 1.424273341399385e-05 L 99.29609680175781 1.424273341399385e-05 C 103.7142105102539 1.424273341399385e-05 107.2962112426758 3.582014322280884 107.2962112426758 8.000102043151855 L 107.2962112426758 48.94201278686523 L 148.2380981445313 48.94201278686523 C 152.6562042236328 48.94201278686523 156.2373046875 52.52401351928711 156.2373046875 56.94210433959961 L 156.2373046875 99.29610443115234 C 156.2373046875 103.7141876220703 152.6562042236328 107.2961883544922 148.2380981445313 107.2961883544922 L 107.2962112426758 107.2961883544922 L 107.2962112426758 148.2380981445313 C 107.2962112426758 152.6571044921875 103.7142105102539 156.2382202148438 99.29609680175781 156.2382202148438 Z" stroke="none" fill="#c4d7d1"/>
    </g>
  </g>
</svg>
