<svg xmlns="http://www.w3.org/2000/svg" width="16.556" height="16.553"><path d="M8.28 4.032a4.244 4.244 0 104.244 4.244A4.237 4.237 0 008.28 4.032zm0 7a2.759 2.759 0 112.759-2.759 2.764 2.764 0 01-2.759 2.762zm5.407-7.17a.99.99 0 11-.99-.99.988.988 0 01.99.99zm2.811 1a4.9 4.9 0 00-1.337-3.468A4.931 4.931 0 0011.692.062c-1.367-.078-5.463-.078-6.829 0a4.924 4.924 0 00-3.468 1.329A4.915 4.915 0 00.058 4.862c-.078 1.367-.078 5.463 0 6.829a4.9 4.9 0 001.337 3.466 4.937 4.937 0 003.468 1.337c1.367.078 5.463.078 6.829 0a4.9 4.9 0 003.468-1.337 4.931 4.931 0 001.337-3.468c.078-1.367.078-5.459 0-6.826zm-1.766 8.292a2.793 2.793 0 01-1.573 1.573c-1.09.432-3.675.332-4.879.332s-3.793.1-4.879-.332a2.793 2.793 0 01-1.573-1.573c-.432-1.09-.332-3.675-.332-4.879s-.1-3.793.332-4.879a2.793 2.793 0 011.577-1.573c1.09-.432 3.675-.332 4.879-.332s3.793-.1 4.879.332a2.793 2.793 0 011.573 1.573c.432 1.09.332 3.675.332 4.879s.096 3.794-.336 4.88z" fill="#1d1d1d"/></svg>