<svg xmlns="http://www.w3.org/2000/svg" width="276.48" height="244"><g opacity=".39"><path d="M242.918 24.872a67.844 67.844 0 00-95.95 0l-13.073 13.07-13.073-13.07a67.838 67.838 0 10-95.945 95.93l13.073 13.069 95.95 95.925 95.95-95.925 13.068-13.069a67.8 67.8 0 000-95.925z" fill="none" stroke="#c4d7d1" stroke-linecap="round" stroke-linejoin="round" stroke-width="10"/><path d="M167.886 244a8 8 0 01-8-8v-57.2h-44.82a8 8 0 01-8-8v-61.729a8 8 0 018-8h44.82v-57.2a8 8 0 018-8h63.028a8 8 0 018 8v57.2h25.743a8 8 0 018 8v61.735a8 8 0 01-8 8h-25.743v57.2a8 8 0 01-8 8z" fill="#ebfaf4"/><g fill="#ebfaf4"><path d="M219.54 209.822h-42.355c-1.654 0-3-1.346-3-3V160.88h-45.942c-1.654 0-3-1.346-3-3v-42.354c0-1.654 1.346-3 3-3h45.942V66.584c0-1.654 1.346-3 3-3h42.354c1.654 0 3 1.346 3 3v45.942h45.942c1.654 0 3 1.346 3 3v42.354c0 1.654-1.346 3-3 3H222.54v45.942c0 1.654-1.346 3-3 3z"/><path d="M217.54 204.822V155.88h48.94v-38.354h-48.94V68.584h-38.355v48.942h-48.942v38.354h48.942v48.942h38.354m2 10h-42.354a8 8 0 01-8-8V165.88h-40.942a8 8 0 01-8-8v-42.354a8 8 0 018-8h40.942V66.584a8 8 0 018-8h42.354a8 8 0 018 8v40.942h40.942a8 8 0 018 8v42.354a8 8 0 01-8 8H227.54v40.942a8 8 0 01-8 8z" fill="#c4d7d1"/></g></g></svg>