<svg xmlns="http://www.w3.org/2000/svg" width="25.734" height="22.634"><path d="M14.417 3.05a1.55 1.55 0 11-1.55-1.55 1.55 1.55 0 011.55 1.55zm9.817 0a1.55 1.55 0 11-1.55-1.55 1.55 1.55 0 011.55 1.55zM4.6 3.05A1.55 1.55 0 113.05 1.5 1.55 1.55 0 014.6 3.05zm9.817 8.267a1.55 1.55 0 11-1.55-1.55 1.55 1.55 0 011.55 1.55zm9.817 0a1.55 1.55 0 11-1.55-1.55 1.55 1.55 0 011.55 1.55zm-19.634 0a1.55 1.55 0 11-1.55-1.55 1.55 1.55 0 011.55 1.55zm9.817 8.267a1.55 1.55 0 11-1.55-1.55 1.55 1.55 0 011.55 1.55zm9.817 0a1.55 1.55 0 11-1.55-1.55 1.55 1.55 0 011.55 1.55zm-19.634 0a1.55 1.55 0 11-1.55-1.55 1.55 1.55 0 011.55 1.55z" fill="none" stroke="#fff" stroke-linecap="round" stroke-linejoin="round" stroke-width="3"/></svg>