<svg xmlns="http://www.w3.org/2000/svg" width="15.922" height="12.931"><path fill="#1d1d1d" d="M14.285 3.219c.01.141.01.283.01.424a9.221 9.221 0 01-9.284 9.284A9.221 9.221 0 010 11.466a6.751 6.751 0 00.788.04 6.535 6.535 0 004.051-1.394 3.269 3.269 0 01-3.051-2.263 4.115 4.115 0 00.616.051 3.451 3.451 0 00.859-.111 3.264 3.264 0 01-2.617-3.2v-.04a3.286 3.286 0 001.475.414A3.268 3.268 0 011.111.599 9.275 9.275 0 007.84 4.011a3.684 3.684 0 01-.081-.748 3.266 3.266 0 015.647-2.233 6.425 6.425 0 002.071-.788 3.254 3.254 0 01-1.435 1.8 6.542 6.542 0 001.879-.505 7.015 7.015 0 01-1.636 1.682z"/></svg>