<svg xmlns="http://www.w3.org/2000/svg" width="15.922" height="12.931" viewBox="0 0 15.922 12.931">
  <path fill="#1d1d1d" d="M14.285,6.6c.01.141.01.283.01.424a9.221,9.221,0,0,1-9.284,9.284A9.221,9.221,0,0,1,0,14.847a6.751,6.751,0,0,0,.788.04,6.535,6.535,0,0,0,4.051-1.394,3.269,3.269,0,0,1-3.051-2.263,4.115,4.115,0,0,0,.616.051,3.451,3.451,0,0,0,.859-.111,3.264,3.264,0,0,1-2.617-3.2v-.04a3.286,3.286,0,0,0,1.475.414,3.268,3.268,0,0,1-1.01-4.364A9.275,9.275,0,0,0,7.84,7.392a3.684,3.684,0,0,1-.081-.748,3.266,3.266,0,0,1,5.647-2.233,6.425,6.425,0,0,0,2.071-.788,3.254,3.254,0,0,1-1.435,1.8,6.542,6.542,0,0,0,1.879-.505A7.015,7.015,0,0,1,14.285,6.6Z" transform="translate(0 -3.381)"/>
</svg>
