<svg xmlns="http://www.w3.org/2000/svg" xmlns:xlink="http://www.w3.org/1999/xlink"><symbol id="icon-awesome-facebook" viewBox="0 0 9.106 17.002">
  <path d="M10.119,9.564l.472-3.077H7.638v-2A1.538,1.538,0,0,1,9.373,2.828h1.342V.208A16.368,16.368,0,0,0,8.333,0C5.9,0,4.312,1.474,4.312,4.142V6.487h-2.7V9.564h2.7V17H7.638V9.564Z" transform="translate(-1.609)" fill="#1d1d1d"/>
</symbol><symbol id="icon-awesome-instagram" viewBox="0 0 16.556 16.553">
  <path d="M8.275,6.27a4.244,4.244,0,1,0,4.244,4.244A4.237,4.237,0,0,0,8.275,6.27Zm0,7a2.759,2.759,0,1,1,2.759-2.759A2.764,2.764,0,0,1,8.275,13.273ZM13.682,6.1a.99.99,0,1,1-.99-.99A.988.988,0,0,1,13.682,6.1Zm2.811,1a4.9,4.9,0,0,0-1.337-3.468A4.931,4.931,0,0,0,11.687,2.3c-1.367-.078-5.463-.078-6.829,0A4.924,4.924,0,0,0,1.39,3.629,4.915,4.915,0,0,0,.053,7.1c-.078,1.367-.078,5.463,0,6.829A4.9,4.9,0,0,0,1.39,17.395a4.937,4.937,0,0,0,3.468,1.337c1.367.078,5.463.078,6.829,0a4.9,4.9,0,0,0,3.468-1.337,4.931,4.931,0,0,0,1.337-3.468c.078-1.367.078-5.459,0-6.826Zm-1.766,8.292a2.793,2.793,0,0,1-1.573,1.573c-1.09.432-3.675.332-4.879.332s-3.793.1-4.879-.332a2.793,2.793,0,0,1-1.573-1.573c-.432-1.09-.332-3.675-.332-4.879s-.1-3.793.332-4.879A2.793,2.793,0,0,1,3.4,4.061c1.09-.432,3.675-.332,4.879-.332s3.793-.1,4.879.332a2.793,2.793,0,0,1,1.573,1.573c.432,1.09.332,3.675.332,4.879S15.159,14.307,14.727,15.393Z" transform="translate(0.005 -2.238)" fill="#1d1d1d"/>
</symbol><symbol id="icon-awesome-twitter" viewBox="0 0 15.922 12.931">
  <path fill="#1d1d1d" d="M14.285,6.6c.01.141.01.283.01.424a9.221,9.221,0,0,1-9.284,9.284A9.221,9.221,0,0,1,0,14.847a6.751,6.751,0,0,0,.788.04,6.535,6.535,0,0,0,4.051-1.394,3.269,3.269,0,0,1-3.051-2.263,4.115,4.115,0,0,0,.616.051,3.451,3.451,0,0,0,.859-.111,3.264,3.264,0,0,1-2.617-3.2v-.04a3.286,3.286,0,0,0,1.475.414,3.268,3.268,0,0,1-1.01-4.364A9.275,9.275,0,0,0,7.84,7.392a3.684,3.684,0,0,1-.081-.748,3.266,3.266,0,0,1,5.647-2.233,6.425,6.425,0,0,0,2.071-.788,3.254,3.254,0,0,1-1.435,1.8,6.542,6.542,0,0,0,1.879-.505A7.015,7.015,0,0,1,14.285,6.6Z" transform="translate(0 -3.381)"/>
</symbol><symbol id="icon-education" viewBox="0 0 323.746 249.813">
  <g transform="translate(-858.35 -1412.41)">
    <path d="M1928.767-889.051v75.277l102.861,53.147,103.884-53.147v-77.493Z" transform="translate(-1009.907 2417.228)" fill="#dae7f1" stroke="#d0dee9" stroke-width="10"/>
    <path d="M1860.933-954.158l153.378-82.776L2163.6-954.158l-149.288,80.341Z" transform="translate(-991.933 2455.042)" fill="#dae7f1" stroke="#d0dee9" stroke-width="10"/>
    <path d="M2274.9-925.1v67.852" transform="translate(-1103.233 2426.35)" fill="none" stroke="#d0dee9" stroke-width="15"/>
  </g>
</symbol><symbol id="icon-long-arrow" viewBox="0 0 68.107 18.329">
  <g transform="translate(-683 -5531.146)">
    <path d="M0,8.811,8.811,0l8.811,8.811" transform="translate(750.399 5531.5) rotate(90)" fill="none" stroke="#2bb673" stroke-width="1"/>
    <line x2="67.253" transform="translate(683 5540.262)" fill="none" stroke="#2bb673" stroke-width="1"/>
  </g>
</symbol><symbol id="icon-medical" viewBox="0 0 276.48 244">
  <g transform="translate(-899.001 -1417.923)" opacity="0.39">
    <path d="M240.241,24.37a67.844,67.844,0,0,0-95.95,0L131.218,37.44,118.145,24.37A67.838,67.838,0,1,0,22.2,120.3l13.073,13.069,95.95,95.925,95.95-95.925L240.241,120.3a67.8,67.8,0,0,0,0-95.925Z" transform="translate(901.678 1418.425)" fill="none" stroke="#c4d7d1" stroke-linecap="round" stroke-linejoin="round" stroke-width="10"/>
    <path d="M60.82,208.129a8,8,0,0,1-8-8v-57.2H8a8,8,0,0,1-8-8V73.2a8,8,0,0,1,8-8H52.82V8a8,8,0,0,1,8-8h63.028a8,8,0,0,1,8,8V65.2h25.743a8,8,0,0,1,8,8v61.735a8,8,0,0,1-8,8H131.848v57.2a8,8,0,0,1-8,8Z" transform="translate(1006.067 1453.794)" fill="#ebfaf4"/>
    <g transform="translate(1019.244 1476.507)" fill="#ebfaf4">
      <path d="M 99.29610443115234 151.2382049560547 L 56.94210433959961 151.2382049560547 C 55.287841796875 151.2382049560547 53.94200897216797 149.8923645019531 53.94200897216797 148.2380981445313 L 53.94200897216797 107.2961959838867 L 53.94200897216797 102.2961959838867 L 48.94200897216797 102.2961959838867 L 8.000104904174805 102.2961959838867 C 6.345842838287354 102.2961959838867 5.000009536743164 100.9503631591797 5.000009536743164 99.29610443115234 L 5.000009536743164 56.94210433959961 C 5.000009536743164 55.287841796875 6.345842838287354 53.94200897216797 8.000104904174805 53.94200897216797 L 48.94200897216797 53.94200897216797 L 53.94200897216797 53.94200897216797 L 53.94200897216797 48.94200897216797 L 53.94200897216797 8.000102043151855 C 53.94200897216797 6.345840454101563 55.287841796875 5.000007152557373 56.94210433959961 5.000007152557373 L 99.29610443115234 5.000007152557373 C 100.9503631591797 5.000007152557373 102.2962036132813 6.345840454101563 102.2962036132813 8.000102043151855 L 102.2962036132813 48.94200897216797 L 102.2962036132813 53.94200897216797 L 107.2962036132813 53.94200897216797 L 148.2380981445313 53.94200897216797 C 149.8918609619141 53.94200897216797 151.2373199462891 55.287841796875 151.2373199462891 56.94210433959961 L 151.2373199462891 99.29610443115234 C 151.2373199462891 100.9503631591797 149.8918609619141 102.2961959838867 148.2380981445313 102.2961959838867 L 107.2962036132813 102.2961959838867 L 102.2962036132813 102.2961959838867 L 102.2962036132813 107.2961959838867 L 102.2962036132813 148.2380981445313 C 102.2962036132813 149.8923645019531 100.9503631591797 151.2382049560547 99.29610443115234 151.2382049560547 Z" stroke="none"/>
      <path d="M 97.29621124267578 146.2382202148438 L 97.29621124267578 107.2961883544922 L 97.29621124267578 97.29618835449219 L 107.2962112426758 97.29618835449219 L 146.2373046875 97.29618835449219 L 146.2373046875 58.94201278686523 L 107.2962112426758 58.94201278686523 L 97.29621124267578 58.94201278686523 L 97.29621124267578 48.94201278686523 L 97.29621124267578 10.00001430511475 L 58.9420051574707 10.00001430511475 L 58.9420051574707 48.94201278686523 L 58.9420051574707 58.94201278686523 L 48.9420051574707 58.94201278686523 L 10.0000057220459 58.94201278686523 L 10.0000057220459 97.29618835449219 L 48.9420051574707 97.29618835449219 L 58.9420051574707 97.29618835449219 L 58.9420051574707 107.2961883544922 L 58.9420051574707 146.2382202148438 L 97.29621124267578 146.2382202148438 M 99.29609680175781 156.2382202148438 L 56.94209289550781 156.2382202148438 C 52.52400588989258 156.2382202148438 48.9420051574707 152.6571044921875 48.9420051574707 148.2380981445313 L 48.9420051574707 107.2961883544922 L 8.000093460083008 107.2961883544922 C 3.582005262374878 107.2961883544922 5.284926373860799e-06 103.7141876220703 5.284926373860799e-06 99.29610443115234 L 5.284926373860799e-06 56.94210433959961 C 5.284926373860799e-06 52.52401351928711 3.582005262374878 48.94201278686523 8.000093460083008 48.94201278686523 L 48.9420051574707 48.94201278686523 L 48.9420051574707 8.000102043151855 C 48.9420051574707 3.582014322280884 52.52400588989258 1.424273341399385e-05 56.94209289550781 1.424273341399385e-05 L 99.29609680175781 1.424273341399385e-05 C 103.7142105102539 1.424273341399385e-05 107.2962112426758 3.582014322280884 107.2962112426758 8.000102043151855 L 107.2962112426758 48.94201278686523 L 148.2380981445313 48.94201278686523 C 152.6562042236328 48.94201278686523 156.2373046875 52.52401351928711 156.2373046875 56.94210433959961 L 156.2373046875 99.29610443115234 C 156.2373046875 103.7141876220703 152.6562042236328 107.2961883544922 148.2380981445313 107.2961883544922 L 107.2962112426758 107.2961883544922 L 107.2962112426758 148.2380981445313 C 107.2962112426758 152.6571044921875 103.7142105102539 156.2382202148438 99.29609680175781 156.2382202148438 Z" stroke="none" fill="#c4d7d1"/>
    </g>
  </g>
</symbol><symbol id="icon-middle-arrow" viewBox="0 0 52.614 24.747">
  <g transform="translate(0 0.306)">
    <path d="M0,9.334,12.067,0,24.135,9.334" transform="translate(51.982 0) rotate(90)" fill="none" stroke="#1d1d1d" stroke-width="1"/>
    <line x2="51.826" transform="translate(0 12)" fill="none" stroke="#1d1d1d" stroke-width="1"/>
  </g>
</symbol><symbol id="icon-scroll" viewBox="0 0 67.908 24.842">
  <g transform="translate(-683 -5531.147)">
    <path d="M4986.3,5535.7l12.067-12.067,12.067,12.067" transform="translate(6273.834 545.2) rotate(90)" fill="none" stroke="#1d1d1d" stroke-width="1"/>
    <line x2="67" transform="translate(683 5543.5)" fill="none" stroke="#1d1d1d" stroke-width="1"/>
  </g>
</symbol><symbol id="icon-short-arrow" viewBox="0 0 40.965 18.818">
  <g transform="translate(0 0.349)">
    <path d="M0,8.811,9.061,0l9.061,8.811" transform="translate(40.267 0) rotate(90)" fill="none" stroke="#1d1d1d" stroke-width="1"/>
    <line x2="40.12" transform="translate(0 9.01)" fill="none" stroke="#1d1d1d" stroke-width="1"/>
  </g>
</symbol><symbol id="icon-toggle" viewBox="0 0 25.734 22.634">
  <g transform="translate(-1735.633 -39.683)">
    <g transform="translate(1737.133 41.183)">
      <path d="M19.6,18.05a1.55,1.55,0,1,1-1.55-1.55A1.55,1.55,0,0,1,19.6,18.05Z" transform="translate(-6.683 -16.5)" fill="none" stroke="#fff" stroke-linecap="round" stroke-linejoin="round" stroke-width="3"/>
      <path d="M30.1,18.05a1.55,1.55,0,1,1-1.55-1.55A1.55,1.55,0,0,1,30.1,18.05Z" transform="translate(-7.366 -16.5)" fill="none" stroke="#fff" stroke-linecap="round" stroke-linejoin="round" stroke-width="3"/>
      <path d="M9.1,18.05A1.55,1.55,0,1,1,7.55,16.5,1.55,1.55,0,0,1,9.1,18.05Z" transform="translate(-6 -16.5)" fill="none" stroke="#fff" stroke-linecap="round" stroke-linejoin="round" stroke-width="3"/>
    </g>
    <g transform="translate(1737.133 49.45)">
      <path d="M19.6,18.05a1.55,1.55,0,1,1-1.55-1.55A1.55,1.55,0,0,1,19.6,18.05Z" transform="translate(-6.683 -16.5)" fill="none" stroke="#fff" stroke-linecap="round" stroke-linejoin="round" stroke-width="3"/>
      <path d="M30.1,18.05a1.55,1.55,0,1,1-1.55-1.55A1.55,1.55,0,0,1,30.1,18.05Z" transform="translate(-7.366 -16.5)" fill="none" stroke="#fff" stroke-linecap="round" stroke-linejoin="round" stroke-width="3"/>
      <path d="M9.1,18.05A1.55,1.55,0,1,1,7.55,16.5,1.55,1.55,0,0,1,9.1,18.05Z" transform="translate(-6 -16.5)" fill="none" stroke="#fff" stroke-linecap="round" stroke-linejoin="round" stroke-width="3"/>
    </g>
    <g transform="translate(1737.133 57.717)">
      <path d="M19.6,18.05a1.55,1.55,0,1,1-1.55-1.55A1.55,1.55,0,0,1,19.6,18.05Z" transform="translate(-6.683 -16.5)" fill="none" stroke="#fff" stroke-linecap="round" stroke-linejoin="round" stroke-width="3"/>
      <path d="M30.1,18.05a1.55,1.55,0,1,1-1.55-1.55A1.55,1.55,0,0,1,30.1,18.05Z" transform="translate(-7.366 -16.5)" fill="none" stroke="#fff" stroke-linecap="round" stroke-linejoin="round" stroke-width="3"/>
      <path d="M9.1,18.05A1.55,1.55,0,1,1,7.55,16.5,1.55,1.55,0,0,1,9.1,18.05Z" transform="translate(-6 -16.5)" fill="none" stroke="#fff" stroke-linecap="round" stroke-linejoin="round" stroke-width="3"/>
    </g>
  </g>
</symbol></svg>