<svg xmlns="http://www.w3.org/2000/svg" width="16.556" height="16.553" viewBox="0 0 16.556 16.553">
  <path id="icon-awesome-instagram" d="M8.275,6.27a4.244,4.244,0,1,0,4.244,4.244A4.237,4.237,0,0,0,8.275,6.27Zm0,7a2.759,2.759,0,1,1,2.759-2.759A2.764,2.764,0,0,1,8.275,13.273ZM13.682,6.1a.99.99,0,1,1-.99-.99A.988.988,0,0,1,13.682,6.1Zm2.811,1a4.9,4.9,0,0,0-1.337-3.468A4.931,4.931,0,0,0,11.687,2.3c-1.367-.078-5.463-.078-6.829,0A4.924,4.924,0,0,0,1.39,3.629,4.915,4.915,0,0,0,.053,7.1c-.078,1.367-.078,5.463,0,6.829A4.9,4.9,0,0,0,1.39,17.395a4.937,4.937,0,0,0,3.468,1.337c1.367.078,5.463.078,6.829,0a4.9,4.9,0,0,0,3.468-1.337,4.931,4.931,0,0,0,1.337-3.468c.078-1.367.078-5.459,0-6.826Zm-1.766,8.292a2.793,2.793,0,0,1-1.573,1.573c-1.09.432-3.675.332-4.879.332s-3.793.1-4.879-.332a2.793,2.793,0,0,1-1.573-1.573c-.432-1.09-.332-3.675-.332-4.879s-.1-3.793.332-4.879A2.793,2.793,0,0,1,3.4,4.061c1.09-.432,3.675-.332,4.879-.332s3.793-.1,4.879.332a2.793,2.793,0,0,1,1.573,1.573c.432,1.09.332,3.675.332,4.879S15.159,14.307,14.727,15.393Z" transform="translate(0.005 -2.238)" fill="#1d1d1d"/>
</svg>
